<svg width="34" height="35" viewBox="0 0 34 35" fill="none" xmlns="http://www.w3.org/2000/svg">
<path d="M23.8166 15.9416C21.651 15.9416 21.3513 18.0997 21.3513 18.0997H25.9521C25.9521 18.0997 25.9821 15.9416 23.8166 15.9416Z" fill="white"/>
<path d="M13.3784 18.0997H9.30206V21.8463H13.1761C13.7606 21.8313 14.8546 21.6665 14.8546 20.0254C14.8546 18.0772 13.3784 18.0997 13.3784 18.0997Z" fill="white"/>
<path d="M17.215 0.835144C7.94581 0.835144 0.430054 8.3509 0.430054 17.6201C0.430054 26.8893 7.94581 34.405 17.215 34.405C26.4842 34.405 33.9999 26.8893 33.9999 17.6201C33.9999 8.3509 26.4842 0.835144 17.215 0.835144ZM20.7518 11.1459H26.5291V12.8694H20.7518V11.1459ZM17.8295 20.1978C17.8295 24.4689 13.3784 24.3341 13.3784 24.3341H6.09497V10.3216H13.3784C15.5965 10.3216 17.3424 11.543 17.3424 14.0533C17.3424 16.5635 15.2068 16.7209 15.2068 16.7209C18.0243 16.7209 17.8295 20.1978 17.8295 20.1978ZM28.6348 19.9655H21.3738C21.3738 22.5657 23.8391 22.4008 23.8391 22.4008C26.1695 22.4008 26.087 20.8947 26.087 20.8947H28.5523C28.5523 24.8961 23.7566 24.6188 23.7566 24.6188C18.0093 24.6188 18.3765 19.2611 18.3765 19.2611C18.3765 19.2611 18.369 13.8809 23.7566 13.8809C29.429 13.8884 28.6348 19.9655 28.6348 19.9655Z" fill="white"/>
<path d="M14.3675 14.2706C14.3675 12.8169 13.3784 12.8169 13.3784 12.8169H9.30206V15.9416H13.1236C13.783 15.9416 14.3675 15.7243 14.3675 14.2706Z" fill="white"/>
</svg>
